<?xml version="1.0" encoding="UTF-8" standalone="no"?>
<!-- Created with Inkscape (http://www.inkscape.org/) -->

<svg
   xmlns:dc="http://purl.org/dc/elements/1.1/"
   xmlns:cc="http://creativecommons.org/ns#"
   xmlns:rdf="http://www.w3.org/1999/02/22-rdf-syntax-ns#"
   xmlns:svg="http://www.w3.org/2000/svg"
   xmlns="http://www.w3.org/2000/svg"
   xmlns:sodipodi="http://sodipodi.sourceforge.net/DTD/sodipodi-0.dtd"
   xmlns:inkscape="http://www.inkscape.org/namespaces/inkscape"
   id="svg20277"
   version="1.1"
   inkscape:version="0.91 r13725"
   width="28.75"
   height="30"
   viewBox="0 0 28.75 30"
   sodipodi:docname="digitize.svg">
  <metadata
     id="metadata20283">
    <rdf:RDF>
      <cc:Work
         rdf:about="">
        <dc:format>image/svg+xml</dc:format>
        <dc:type
           rdf:resource="http://purl.org/dc/dcmitype/StillImage" />
        <dc:title></dc:title>
      </cc:Work>
    </rdf:RDF>
  </metadata>
  <defs
     id="defs20281" />
  <sodipodi:namedview
     pagecolor="#ffffff"
     bordercolor="#666666"
     borderopacity="1"
     objecttolerance="10"
     gridtolerance="10"
     guidetolerance="10"
     inkscape:pageopacity="0"
     inkscape:pageshadow="2"
     inkscape:window-width="1920"
     inkscape:window-height="1016"
     id="namedview20279"
     showgrid="false"
     inkscape:zoom="4.0747955"
     inkscape:cx="54.333412"
     inkscape:cy="58.526708"
     inkscape:window-x="0"
     inkscape:window-y="35"
     inkscape:window-maximized="1"
     inkscape:current-layer="svg20277" />
  <text
     xml:space="preserve"
     style="font-style:normal;font-weight:normal;font-size:5.80977583px;line-height:125%;font-family:Sans;letter-spacing:0px;word-spacing:0px;fill:#000000;fill-opacity:1;stroke:none;stroke-width:1px;stroke-linecap:butt;stroke-linejoin:miter;stroke-opacity:1"
     x="2.6094537"
     y="28.125616"
     id="text20865"
     sodipodi:linespacing="125%"
     inkscape:export-xdpi="90"
     inkscape:export-ydpi="90"><tspan
       sodipodi:role="line"
       id="tspan20867"
       x="2.6094537"
       y="28.125616">Digitize </tspan></text>
  <path
     style="fill:none;fill-rule:evenodd;stroke:#000000;stroke-width:1px;stroke-linecap:butt;stroke-linejoin:miter;stroke-opacity:1"
     d="M 10.354918,18.53712 C 26.92721,6.6501886 26.92721,6.6501886 26.92721,6.6501886 m -8.329529,6.5942094 4.772126,6.247147"
     id="path20888"
     inkscape:connector-curvature="0"
     inkscape:export-xdpi="90"
     inkscape:export-ydpi="90" />
  <path
     style="fill:#ffdd55;fill-rule:evenodd;stroke:#000000;stroke-width:1px;stroke-linecap:butt;stroke-linejoin:miter;stroke-opacity:1"
     d="M 5.9868486,-0.1077748 C 5.9000826,0.6731184 2.0823821,9.5232425 2.0823821,9.5232425 L 3.3838709,15.249793 8.7633581,13.427709 C 10.535702,8.9479674 12.825275,4.5537196 14.576675,0.06575699 Z"
     id="path20890"
     inkscape:connector-curvature="0"
     sodipodi:nodetypes="ccccc"
     inkscape:export-xdpi="90"
     inkscape:export-ydpi="90" />
  <path
     style="fill:none;fill-rule:evenodd;stroke:#000000;stroke-width:1px;stroke-linecap:butt;stroke-linejoin:miter;stroke-opacity:1"
     d="M 1.9956162,9.1761788 C 4.3022431,7.0109041 11.410625,9.6906444 8.7633581,13.514475"
     id="path20892"
     inkscape:connector-curvature="0"
     sodipodi:nodetypes="cc"
     inkscape:export-xdpi="90"
     inkscape:export-ydpi="90" />
  <path
     style="opacity:1;fill:#ffffff;fill-opacity:1;fill-rule:nonzero;stroke:#000000;stroke-width:0.05379487;stroke-miterlimit:4;stroke-dasharray:none;stroke-dashoffset:0;stroke-opacity:1"
     d="M 8.8169323,9.6265993 C 7.725957,8.510385 6.2096944,7.9141907 4.4135617,7.8951942 3.852837,7.8892639 3.3940622,7.87549 3.3940622,7.8645856 c 0,-0.010904 0.540226,-1.3190272 1.2005023,-2.9069395 C 5.2548407,3.3697336 5.9283611,1.7043485 6.0912766,1.25679 L 6.3874865,0.44304759 8.9036982,0.4974283 C 10.287615,0.5273377 11.954765,0.551881 12.608476,0.551969 l 1.188566,1.5997e-4 -0.399615,0.97611663 C 13.177638,2.0651097 12.495493,3.6171351 11.881549,4.977191 11.267604,6.3372468 10.483086,8.0834825 10.138173,8.8577148 9.7932607,9.6319475 9.4915373,10.261495 9.4676767,10.256711 9.4438161,10.25193 9.1509811,9.9683763 8.8169323,9.6265993 Z"
     id="path20894"
     inkscape:connector-curvature="0"
     inkscape:export-xdpi="90"
     inkscape:export-ydpi="90" />
  <path
     style="opacity:1;fill:#ffffff;fill-opacity:1;fill-rule:nonzero;stroke:#000000;stroke-width:0.05379487;stroke-miterlimit:4;stroke-dasharray:none;stroke-dashoffset:0;stroke-opacity:1"
     d="M 9.3432917,10.018941 C 9.3080325,9.9618897 8.9800004,9.6599347 8.6143313,9.3479288 7.4502704,8.3546975 6.3195907,7.9377643 4.5511905,7.8496632 L 3.4957877,7.7970834 4.0173082,6.5389775 C 4.3041445,5.8470193 4.9648381,4.2266657 5.4855162,2.9381918 L 6.4322035,0.5955119 10.008313,0.6221161 c 1.96686,0.0146323 3.592983,0.0434777 3.613606,0.064101 0.02062,0.0206232 -0.148518,0.4771873 -0.375869,1.0145868 -0.684944,1.6190277 -3.6122351,8.1122232 -3.7294662,8.2725458 -0.07943,0.1086273 -0.1266549,0.1210513 -0.1732921,0.045591 z"
     id="path20896"
     inkscape:connector-curvature="0"
     inkscape:export-xdpi="90"
     inkscape:export-ydpi="90" />
  <path
     style="opacity:1;fill:#ffcc00;fill-opacity:1;fill-rule:nonzero;stroke:#000000;stroke-width:0.05379487;stroke-miterlimit:4;stroke-dasharray:none;stroke-dashoffset:0;stroke-opacity:1"
     d="M 3.2304268,12.137571 C 2.9320841,10.826441 2.7004353,9.6453402 2.7156516,9.5129016 2.7389818,9.309843 2.8113095,9.2489022 3.1771474,9.1240615 3.7834597,8.9171599 4.9278644,8.9239837 5.7706258,9.1395255 7.4232475,9.562195 8.7735493,10.706059 8.7735493,11.683354 c 0,0.160819 -0.092478,0.519704 -0.2055071,0.797523 l -0.205507,0.505125 -2.239788,0.76772 c -1.2318835,0.422246 -2.2645586,0.76772 -2.2948336,0.76772 -0.030275,0 -0.2991441,-1.072742 -0.5974868,-2.383871 z"
     id="path20898"
     inkscape:connector-curvature="0"
     inkscape:export-xdpi="90"
     inkscape:export-ydpi="90" />
  <path
     style="opacity:1;fill:#ffcc00;fill-opacity:1;fill-rule:nonzero;stroke:#000000;stroke-width:0.05379487;stroke-miterlimit:4;stroke-dasharray:none;stroke-dashoffset:0;stroke-opacity:1"
     d="M 9.1598059,9.7430825 C 8.727416,9.2886243 7.8930282,8.6976539 7.2551457,8.394073 6.5219556,8.0451334 5.6607457,7.8554001 4.4829872,7.7833383 L 3.6033669,7.7295182 4.829204,4.7264936 C 5.5034143,3.07483 6.1493636,1.4784366 6.2646467,1.1789527 L 6.4742524,0.63443648 9.9882722,0.69197617 C 11.920983,0.723623 13.513478,0.75858847 13.52715,0.76967722 13.582408,0.81449397 9.8422215,9.2504924 9.4806113,9.8966539 9.4321012,9.9833365 9.3518351,9.9449131 9.1598059,9.7430825 Z"
     id="path20900"
     inkscape:connector-curvature="0"
     inkscape:export-xdpi="90"
     inkscape:export-ydpi="90" />
  <path
     style="opacity:1;fill:#b3b3b3;fill-opacity:1;fill-rule:nonzero;stroke:#000000;stroke-width:0.05379487;stroke-miterlimit:4;stroke-dasharray:none;stroke-dashoffset:0;stroke-opacity:1"
     d="M 3.5391711,13.160373 C 2.9648217,10.749983 2.7463946,9.5723141 2.844757,9.4163773 2.982738,9.197632 3.5301163,9.0692489 4.3562994,9.0618574 c 1.3411433,-0.011999 2.648637,0.4578805 3.5638854,1.2807676 0.7785805,0.700011 0.9170456,1.252586 0.5528423,2.206238 l -0.1512223,0.39597 -2.1384991,0.715069 c -1.1761746,0.393288 -2.183317,0.73115 -2.2380943,0.750804 -0.064162,0.02302 -0.2086199,-0.421812 -0.4060403,-1.250333 z"
     id="path20902"
     inkscape:connector-curvature="0"
     inkscape:export-xdpi="90"
     inkscape:export-ydpi="90" />
</svg>
